# Blender 4.3.2
# www.blender.org
mtllib player1.mtl
o imagetostl_mesh0
v 0.333333 0.000000 0.000000
v 0.333333 0.000000 -1.000000
v 1.000000 0.000000 -1.000000
v 1.000000 0.000000 0.000000
v 0.455228 5.397580 0.000000
v 1.365685 5.397580 0.000000
v 1.365685 5.397580 -1.365685
v 0.455228 5.397580 -1.365685
v -0.455228 3.975312 -1.365685
v -1.365685 3.975312 -1.365685
v -1.365685 5.397580 -1.365685
v -0.455228 5.397580 -1.365685
v 0.455228 3.975312 1.365685
v 1.365685 3.975312 1.365685
v 1.365685 5.397580 1.365685
v 0.455228 5.397580 1.365685
v 1.365685 3.975312 0.000000
v 1.365685 3.975312 -1.365685
v 1.365685 5.397580 -1.365685
v 1.365685 5.397580 0.000000
v -1.365685 3.975312 0.000000
v -1.365685 3.975312 1.365685
v -1.365685 5.397580 1.365685
v -1.365685 5.397580 0.000000
v -1.000000 0.000000 0.000000
v -1.000000 -0.000000 1.000000
v -1.000000 1.041432 1.000000
v -1.000000 1.041432 0.000000
v -1.000000 2.082865 1.000000
v -1.000000 2.082865 0.000000
v -1.000000 3.124298 1.000000
v -1.000000 3.124298 0.000000
v -1.000000 3.124298 0.000000
v -1.000000 3.124298 1.000000
v -1.365685 3.975312 1.365685
v -1.365685 3.975312 0.000000
v 1.000000 0.000000 0.000000
v 1.000000 0.000000 -1.000000
v 1.000000 1.041432 -1.000000
v 1.000000 1.041432 0.000000
v 1.000000 2.082865 -1.000000
v 1.000000 2.082865 0.000000
v 1.000000 3.124298 -1.000000
v 1.000000 3.124298 0.000000
v 1.000000 3.124298 0.000000
v 1.000000 3.124298 -1.000000
v 1.365685 3.975312 -1.365685
v 1.365685 3.975312 0.000000
v 0.333333 -0.000000 1.000000
v 1.000000 -0.000000 1.000000
v 1.000000 1.041432 1.000000
v 0.333333 1.041432 1.000000
v 1.000000 2.082865 1.000000
v 0.333333 2.082865 1.000000
v 0.333333 3.124298 1.000000
v 1.000000 3.124298 1.000000
v 1.365685 3.975312 1.365685
v 0.455228 3.975312 1.365685
v -0.333333 0.000000 -1.000000
v -1.000000 0.000000 -1.000000
v -1.000000 1.041432 -1.000000
v -0.333333 1.041432 -1.000000
v -1.000000 2.082865 -1.000000
v -0.333333 2.082865 -1.000000
v -0.333333 3.124298 -1.000000
v -1.000000 3.124298 -1.000000
v -1.365685 3.975312 -1.365685
v -0.455228 3.975312 -1.365685
v -0.297955 2.858834 -1.000000
v -0.297955 2.348329 -1.000000
v -1.000000 3.124298 -1.000000
v 0.297955 2.348329 -1.000000
v 0.297955 2.858834 -1.000000
v 1.000000 3.124298 -1.000000
v 1.000000 2.082865 -1.000000
v 0.297955 2.858834 1.000000
v 0.297955 2.348329 1.000000
v 1.000000 3.124298 1.000000
v -0.297955 2.348329 1.000000
v -0.297955 2.858834 1.000000
v -1.000000 3.124298 1.000000
v -1.000000 2.082865 1.000000
v -0.099318 2.348329 1.000000
v -0.333333 2.082865 1.000000
v 0.099318 2.858834 1.000000
v 0.333333 3.124298 1.000000
v 0.099318 2.348329 -1.000000
v 0.333333 2.082865 -1.000000
v -0.099318 2.858834 -1.000000
v -0.333333 3.124298 -1.000000
v 0.099318 2.348329 1.865686
v 0.297955 2.348329 1.865686
v 0.297955 2.858834 1.865686
v 0.099318 2.858834 1.865686
v -0.099318 2.348329 1.000000
v -0.099318 2.348329 1.865686
v -0.297955 2.348329 1.865686
v -0.297955 2.348329 1.000000
v 0.297955 2.858834 1.000000
v 0.297955 2.858834 1.865686
v 0.297955 2.348329 1.865686
v 0.297955 2.348329 1.000000
v 0.099318 2.858834 1.000000
v 0.099318 2.858834 1.865686
v 0.297955 2.858834 1.865686
v 0.297955 2.858834 1.000000
v -0.297955 2.348329 1.000000
v -0.297955 2.348329 1.865686
v -0.297955 2.858834 1.865686
v -0.297955 2.858834 1.000000
v -0.099318 2.348329 -1.865686
v -0.297955 2.348329 -1.865686
v -0.297955 2.858834 -1.865686
v -0.099318 2.858834 -1.865686
v 0.099318 2.348329 -1.000000
v 0.099318 2.348329 -1.865686
v 0.297955 2.348329 -1.865686
v 0.297955 2.348329 -1.000000
v -0.297955 2.858834 -1.000000
v -0.297955 2.858834 -1.865686
v -0.297955 2.348329 -1.865686
v -0.297955 2.348329 -1.000000
v -0.099318 2.858834 -1.000000
v -0.099318 2.858834 -1.865686
v -0.297955 2.858834 -1.865686
v -0.297955 2.858834 -1.000000
v 0.297955 2.348329 -1.000000
v 0.297955 2.348329 -1.865686
v 0.297955 2.858834 -1.865686
v 0.297955 2.858834 -1.000000
v 0.297955 2.858834 -1.000000
v 0.297955 2.858834 -1.865686
v 0.099318 2.858834 -1.865686
v 0.099318 2.858834 -1.000000
v -0.297955 2.348329 -1.000000
v -0.297955 2.348329 -1.865686
v -0.099318 2.348329 -1.865686
v -0.099318 2.348329 -1.000000
v 0.297955 2.348329 -1.865686
v 0.099318 2.348329 -1.865686
v 0.099318 2.858834 -1.865686
v 0.297955 2.858834 -1.865686
v -0.297955 2.858834 1.000000
v -0.297955 2.858834 1.865686
v -0.099318 2.858834 1.865686
v -0.099318 2.858834 1.000000
v 0.297955 2.348329 1.000000
v 0.297955 2.348329 1.865686
v 0.099318 2.348329 1.865686
v 0.099318 2.348329 1.000000
v -0.297955 2.348329 1.865686
v -0.099318 2.348329 1.865686
v -0.099318 2.858834 1.865686
v -0.297955 2.858834 1.865686
v 0.099318 2.858834 -1.000000
v 0.333333 3.124298 -1.000000
v -0.099318 2.348329 -1.000000
v -0.099318 2.858834 1.000000
v -0.333333 3.124298 1.000000
v 0.099318 2.348329 1.000000
v 1.000000 3.124298 -1.000000
v 0.333333 3.124298 -1.000000
v 0.455228 3.975312 -1.365685
v 1.365685 3.975312 -1.365685
v 1.000000 1.041432 -1.000000
v 0.333333 1.041432 -1.000000
v 1.000000 0.000000 -1.000000
v 0.333333 0.000000 -1.000000
v -1.000000 3.124298 1.000000
v -0.333333 3.124298 1.000000
v -0.455228 3.975312 1.365685
v -1.365685 3.975312 1.365685
v -1.000000 1.041432 1.000000
v -0.333333 1.041432 1.000000
v -1.000000 -0.000000 1.000000
v -0.333333 -0.000000 1.000000
v -1.365685 3.975312 1.365685
v -0.455228 3.975312 1.365685
v -0.455228 5.397580 1.365685
v -1.365685 5.397580 1.365685
v 1.365685 3.975312 -1.365685
v 0.455228 3.975312 -1.365685
v 0.455228 5.397580 -1.365685
v 1.365685 5.397580 -1.365685
v -1.365685 5.397580 0.000000
v -0.455228 5.397580 0.000000
v -0.455228 5.397580 -1.365685
v -1.365685 5.397580 -1.365685
v -1.000000 0.000000 0.000000
v -1.000000 0.000000 -1.000000
v -0.333333 0.000000 -1.000000
v -0.333333 0.000000 0.000000
v 0.214578 -0.000000 0.762035
v -0.214578 -0.000000 0.762035
v -0.214578 -1.398281 0.762035
v 0.214578 -1.398281 0.762035
v -0.214578 -0.000000 0.762035
v -0.214578 0.000000 0.000000
v -0.214578 -1.398281 -0.000000
v -0.214578 -1.398281 0.762035
v -1.000000 -0.000000 1.000000
v -0.333333 -0.000000 1.000000
v -0.455228 5.397580 1.365685
v 0.455228 5.397580 1.365685
v -1.365685 5.397580 1.365685
v 1.000000 3.124298 1.000000
v 1.365685 3.975312 1.365685
v 1.000000 2.082865 1.000000
v 1.000000 3.124298 1.000000
v 1.000000 1.041432 1.000000
v 1.000000 -0.000000 1.000000
v -1.000000 3.124298 -1.000000
v -1.365685 3.975312 -1.365685
v -1.000000 2.082865 -1.000000
v -1.000000 3.124298 -1.000000
v -1.000000 1.041432 -1.000000
v -1.000000 0.000000 -1.000000
v -1.365685 3.975312 -1.365685
v -1.365685 5.397580 -1.365685
v 1.365685 3.975312 1.365685
v 1.365685 5.397580 1.365685
v 1.365685 5.397580 1.365685
v 0.333333 -0.000000 1.000000
v 1.000000 -0.000000 1.000000
v -0.214578 -0.000000 0.762035
v 0.214578 -0.000000 0.762035
v 0.214578 0.000000 -0.762035
v -0.214578 0.000000 -0.762035
v -0.214578 0.000000 0.000000
v 0.214578 0.000000 0.000000
v -0.214578 -1.398281 -0.000000
v -0.214578 -1.398281 -0.762035
v 0.214578 -1.398281 -0.762035
v 0.214578 -1.398281 -0.000000
v -0.214578 -1.398281 0.762035
v 0.214578 -1.398281 0.762035
v 0.214578 0.000000 -0.762035
v 0.214578 0.000000 0.000000
v 0.214578 -1.398281 -0.000000
v 0.214578 -1.398281 -0.762035
v 0.214578 -0.000000 0.762035
v 0.214578 -1.398281 0.762035
v -0.214578 0.000000 -0.762035
v 0.214578 0.000000 -0.762035
v 0.214578 -1.398281 -0.762035
v -0.214578 -1.398281 -0.762035
v -0.214578 0.000000 -0.762035
v -0.214578 -1.398281 -0.762035
v 1.365685 4.147622 -0.172310
v 1.365685 4.147622 -1.193375
v 1.365685 5.225270 -1.193375
v 1.365685 5.225270 -0.172310
v 1.365685 4.329633 1.011364
v 1.365685 4.329633 0.354322
v 1.365685 5.043259 0.354322
v 1.365685 5.043259 1.011364
v 1.813062 5.043259 0.354322
v 1.813062 4.329633 1.011364
v 1.813062 4.329633 0.354322
v 1.813062 5.043259 1.011364
v 1.988724 4.147622 -0.172310
v 1.988724 5.225270 -1.193375
v 1.988724 4.147622 -1.193375
v 1.988724 5.225270 -0.172310
v 0.333333 0.010000 0.000000
v 0.333333 0.010000 -1.000000
v 1.000000 0.010000 -1.000000
v 1.000000 0.010000 0.000000
v 0.455228 5.387580 0.000000
v 1.365685 5.387580 0.000000
v 1.365685 5.387580 -1.365685
v 0.455228 5.387580 -1.365685
v -0.455228 3.975312 -1.355685
v -1.365685 3.975312 -1.355685
v -1.365685 5.397580 -1.355685
v -0.455228 5.397580 -1.355685
v 0.455228 3.975312 1.355685
v 1.365685 3.975312 1.355685
v 1.365685 5.397580 1.355685
v 0.455228 5.397580 1.355685
v 1.355685 3.975312 0.000000
v 1.355685 3.975312 -1.365685
v 1.355685 5.397580 -1.365685
v 1.355685 5.397580 0.000000
v -1.355685 3.975312 0.000000
v -1.355685 3.975312 1.365685
v -1.355685 5.397580 1.365685
v -1.355685 5.397580 0.000000
v -0.990000 0.000000 0.000000
v -0.990000 -0.000000 1.000000
v -0.990000 1.041432 1.000000
v -0.990000 1.041432 0.000000
v -0.990000 2.082865 1.000000
v -0.990000 2.082865 0.000000
v -0.990000 3.124298 1.000000
v -0.990000 3.124298 0.000000
v -0.990812 3.128246 0.000000
v -0.990812 3.128246 1.000000
v -1.356497 3.979260 1.365685
v -1.356497 3.979260 0.000000
v 0.990000 0.000000 0.000000
v 0.990000 0.000000 -1.000000
v 0.990000 1.041432 -1.000000
v 0.990000 1.041432 0.000000
v 0.990000 2.082865 -1.000000
v 0.990000 2.082865 0.000000
v 0.990000 3.124298 -1.000000
v 0.990000 3.124298 0.000000
v 0.990812 3.128246 0.000000
v 0.990812 3.128246 -1.000000
v 1.356497 3.979260 -1.365685
v 1.356497 3.979260 0.000000
v 0.333333 -0.000000 0.990000
v 1.000000 -0.000000 0.990000
v 1.000000 1.041432 0.990000
v 0.333333 1.041432 0.990000
v 1.000000 2.082865 0.990000
v 0.333333 2.082865 0.990000
v 0.333333 3.128246 0.990812
v 1.000000 3.128246 0.990812
v 1.365685 3.979260 1.356497
v 0.455228 3.979260 1.356497
v -0.333333 0.000000 -0.990000
v -1.000000 0.000000 -0.990000
v -1.000000 1.041432 -0.990000
v -0.333333 1.041432 -0.990000
v -1.000000 2.082865 -0.990000
v -0.333333 2.082865 -0.990000
v -0.333333 3.128246 -0.990812
v -1.000000 3.128246 -0.990812
v -1.365685 3.979260 -1.356497
v -0.455228 3.979260 -1.356497
v -0.297955 2.858834 -0.990000
v -0.297955 2.348329 -0.990000
v -1.000000 3.124298 -0.990000
v 0.297955 2.348329 -0.990000
v 0.297955 2.858834 -0.990000
v 1.000000 3.124298 -0.990000
v 1.000000 2.082865 -0.990000
v 0.297955 2.858834 0.990000
v 0.297955 2.348329 0.990000
v 1.000000 3.124298 0.990000
v -0.297955 2.348329 0.990000
v -0.297955 2.858834 0.990000
v -1.000000 3.124298 0.990000
v -1.000000 2.082865 0.990000
v -0.099318 2.348329 0.990000
v -0.333333 2.082865 0.990000
v 0.099318 2.858834 0.990000
v 0.333333 3.124298 0.990000
v 0.099318 2.348329 -0.990000
v 0.333333 2.082865 -0.990000
v -0.099318 2.858834 -0.990000
v -0.333333 3.124298 -0.990000
v 0.099318 2.348329 1.855686
v 0.297955 2.348329 1.855686
v 0.297955 2.858834 1.855686
v 0.099318 2.858834 1.855686
v -0.099318 2.358329 1.000000
v -0.099318 2.358329 1.865686
v -0.297955 2.358329 1.865686
v -0.297955 2.358329 1.000000
v 0.287955 2.858834 1.000000
v 0.287955 2.858834 1.865686
v 0.287955 2.348329 1.865686
v 0.287955 2.348329 1.000000
v 0.099318 2.848834 1.000000
v 0.099318 2.848834 1.865686
v 0.297955 2.848834 1.865686
v 0.297955 2.848834 1.000000
v -0.287955 2.348329 1.000000
v -0.287955 2.348329 1.865686
v -0.287955 2.858834 1.865686
v -0.287955 2.858834 1.000000
v -0.099318 2.348329 -1.855686
v -0.297955 2.348329 -1.855686
v -0.297955 2.858834 -1.855686
v -0.099318 2.858834 -1.855686
v 0.099318 2.358329 -1.000000
v 0.099318 2.358329 -1.865686
v 0.297955 2.358329 -1.865686
v 0.297955 2.358329 -1.000000
v -0.287955 2.858834 -1.000000
v -0.287955 2.858834 -1.865686
v -0.287955 2.348329 -1.865686
v -0.287955 2.348329 -1.000000
v -0.099318 2.848834 -1.000000
v -0.099318 2.848834 -1.865686
v -0.297955 2.848834 -1.865686
v -0.297955 2.848834 -1.000000
v 0.287955 2.348329 -1.000000
v 0.287955 2.348329 -1.865686
v 0.287955 2.858834 -1.865686
v 0.287955 2.858834 -1.000000
v 0.297955 2.848834 -1.000000
v 0.297955 2.848834 -1.865686
v 0.099318 2.848834 -1.865686
v 0.099318 2.848834 -1.000000
v -0.297955 2.358329 -1.000000
v -0.297955 2.358329 -1.865686
v -0.099318 2.358329 -1.865686
v -0.099318 2.358329 -1.000000
v 0.297955 2.348329 -1.855686
v 0.099318 2.348329 -1.855686
v 0.099318 2.858834 -1.855686
v 0.297955 2.858834 -1.855686
v -0.297955 2.848834 1.000000
v -0.297955 2.848834 1.865686
v -0.099318 2.848834 1.865686
v -0.099318 2.848834 1.000000
v 0.297955 2.358329 1.000000
v 0.297955 2.358329 1.865686
v 0.099318 2.358329 1.865686
v 0.099318 2.358329 1.000000
v -0.297955 2.348329 1.855686
v -0.099318 2.348329 1.855686
v -0.099318 2.858834 1.855686
v -0.297955 2.858834 1.855686
v 0.099318 2.858834 -0.990000
v 0.333333 3.124298 -0.990000
v -0.099318 2.348329 -0.990000
v -0.099318 2.858834 0.990000
v -0.333333 3.124298 0.990000
v 0.099318 2.348329 0.990000
v 1.000000 3.128246 -0.990812
v 0.333333 3.128246 -0.990812
v 0.455228 3.979260 -1.356497
v 1.365685 3.979260 -1.356497
v 1.000000 1.041432 -0.990000
v 0.333333 1.041432 -0.990000
v 1.000000 0.000000 -0.990000
v 0.333333 0.000000 -0.990000
v -1.000000 3.128246 0.990812
v -0.333333 3.128246 0.990812
v -0.455228 3.979260 1.356497
v -1.365685 3.979260 1.356497
v -1.000000 1.041432 0.990000
v -0.333333 1.041432 0.990000
v -1.000000 -0.000000 0.990000
v -0.333333 -0.000000 0.990000
v -1.365685 3.975312 1.355685
v -0.455228 3.975312 1.355685
v -0.455228 5.397580 1.355685
v -1.365685 5.397580 1.355685
v 1.365685 3.975312 -1.355685
v 0.455228 3.975312 -1.355685
v 0.455228 5.397580 -1.355685
v 1.365685 5.397580 -1.355685
v -1.365685 5.387580 0.000000
v -0.455228 5.387580 0.000000
v -0.455228 5.387580 -1.365685
v -1.365685 5.387580 -1.365685
v -1.000000 0.010000 0.000000
v -1.000000 0.010000 -1.000000
v -0.333333 0.010000 -1.000000
v -0.333333 0.010000 0.000000
v 0.214578 -0.000000 0.752035
v -0.214578 -0.000000 0.752035
v -0.214578 -1.398281 0.752035
v 0.214578 -1.398281 0.752035
v -0.204578 -0.000000 0.762035
v -0.204578 0.000000 0.000000
v -0.204578 -1.398281 -0.000000
v -0.204578 -1.398281 0.762035
v -1.000000 0.010000 1.000000
v -0.333333 0.010000 1.000000
v -0.455228 5.387580 1.365685
v 0.455228 5.387580 1.365685
v -1.365685 5.387580 1.365685
v 0.990812 3.128246 1.000000
v 1.356497 3.979260 1.365685
v 0.990000 2.082865 1.000000
v 0.990000 3.124298 1.000000
v 0.990000 1.041432 1.000000
v 0.990000 -0.000000 1.000000
v -0.990812 3.128246 -1.000000
v -1.356497 3.979260 -1.365685
v -0.990000 2.082865 -1.000000
v -0.990000 3.124298 -1.000000
v -0.990000 1.041432 -1.000000
v -0.990000 0.000000 -1.000000
v -1.355685 3.975312 -1.365685
v -1.355685 5.397580 -1.365685
v 1.355685 3.975312 1.365685
v 1.355685 5.397580 1.365685
v 1.365685 5.387580 1.365685
v 0.333333 0.010000 1.000000
v 1.000000 0.010000 1.000000
v -0.214578 0.010000 0.762035
v 0.214578 0.010000 0.762035
v 0.214578 0.010000 -0.762035
v -0.214578 0.010000 -0.762035
v -0.214578 0.010000 0.000000
v 0.214578 0.010000 0.000000
v -0.214578 -1.388281 -0.000000
v -0.214578 -1.388281 -0.762035
v 0.214578 -1.388281 -0.762035
v 0.214578 -1.388281 -0.000000
v -0.214578 -1.388281 0.762035
v 0.214578 -1.388281 0.762035
v 0.204578 0.000000 -0.762035
v 0.204578 0.000000 0.000000
v 0.204578 -1.398281 -0.000000
v 0.204578 -1.398281 -0.762035
v 0.204578 -0.000000 0.762035
v 0.204578 -1.398281 0.762035
v -0.214578 0.000000 -0.752035
v 0.214578 0.000000 -0.752035
v 0.214578 -1.398281 -0.752035
v -0.214578 -1.398281 -0.752035
v -0.204578 0.000000 -0.762035
v -0.204578 -1.398281 -0.762035
v 1.356640 4.150637 -0.175325
v 1.356640 4.150637 -1.190360
v 1.356640 5.222255 -1.190360
v 1.356640 5.222255 -0.175325
v 1.356640 4.332648 1.008349
v 1.356640 4.332648 0.357337
v 1.356640 5.040244 0.357337
v 1.356640 5.040244 1.008349
v 1.807288 5.037485 0.360095
v 1.807288 4.335407 1.005590
v 1.807288 4.335407 0.360095
v 1.807288 5.037485 1.005590
v 1.982950 4.153395 -0.178083
v 1.982950 5.219497 -1.187602
v 1.982950 4.153395 -1.187601
v 1.982950 5.219497 -0.178083
vn -0.0000 -1.0000 -0.0000
vn -0.0000 1.0000 -0.0000
vn -0.0000 -0.0000 -1.0000
vn -0.0000 -0.0000 1.0000
vn -1.0000 -0.0000 -0.0000
vn -0.9188 -0.3948 -0.0000
vn 1.0000 -0.0000 -0.0000
vn 0.9188 -0.3948 -0.0000
vn -0.0000 -0.3948 0.9188
vn -0.0000 -0.3948 -0.9188
vn -0.0044 -0.0000 1.0000
vn -0.0044 -1.0000 -0.0000
vn 0.9188 0.3948 -0.0000
vn -0.9188 0.3948 -0.0000
vn -0.0000 0.3948 -0.9188
vn -0.0000 0.3948 0.9188
vn -0.0061 -0.0000 1.0000
vn -0.0061 -0.0000 -1.0000
vn -1.0000 0.0054 -0.0000
vn -1.0000 -0.0000 0.0054
vn -1.0000 -0.0000 -0.0054
vn -1.0000 -0.0054 -0.0000
vn -1.0000 -0.0000 0.0027
vn -1.0000 0.0027 -0.0000
vn -1.0000 -0.0000 -0.0027
vn -1.0000 -0.0027 -0.0000
vn -0.0061 -1.0000 -0.0000
vn -0.0061 1.0000 -0.0000
vn -0.0044 -0.0000 -1.0000
vn -0.0044 1.0000 -0.0000
vn 0.3948 -0.9188 -0.0000
vn 0.1450 -0.3374 0.9301
vn -0.3948 0.9188 -0.0000
vn -0.3948 -0.9188 -0.0000
vn -0.1450 -0.3374 -0.9301
vn 0.3948 0.9188 -0.0000
vn -0.0000 -0.9188 -0.3948
vn 0.9301 -0.3374 -0.1450
vn -0.0000 0.9188 0.3948
vn -0.0000 -0.9188 0.3948
vn -0.9301 -0.3374 0.1450
vn -0.0000 0.9188 -0.3948
vn 0.9301 -0.3374 0.1450
vn -0.9301 -0.3374 -0.1450
vn -0.1450 -0.3374 0.9301
vn 0.1450 -0.3374 -0.9301
s 0
usemtl mat0
f 1//1 2//1 3//1
f 1//1 3//1 4//1
f 5//2 6//2 7//2
f 5//2 7//2 8//2
f 9//3 10//3 11//3
f 9//3 11//3 12//3
f 13//4 14//4 15//4
f 13//4 15//4 16//4
f 250//3 251//3 262//3 263//3
f 251//2 252//2 264//2 262//2
f 21//5 22//5 23//5
f 21//5 23//5 24//5
f 25//5 26//5 27//5
f 25//5 27//5 28//5
f 28//5 27//5 29//5
f 28//5 29//5 30//5
f 30//5 29//5 31//5
f 30//5 31//5 32//5
f 33//6 34//6 35//6
f 33//6 35//6 36//6
f 37//7 38//7 39//7
f 37//7 39//7 40//7
f 40//7 39//7 41//7
f 40//7 41//7 42//7
f 42//7 41//7 43//7
f 42//7 43//7 44//7
f 45//8 46//8 47//8
f 45//8 47//8 48//8
f 49//4 50//4 51//4
f 49//4 51//4 52//4
f 52//4 51//4 53//4
f 52//4 53//4 54//4
f 55//9 56//9 57//9
f 55//9 57//9 58//9
f 59//3 60//3 61//3
f 59//3 61//3 62//3
f 62//3 61//3 63//3
f 62//3 63//3 64//3
f 65//10 66//10 67//10
f 65//10 67//10 68//10
f 69//3 70//3 63//3
f 69//3 63//3 71//3
f 72//3 73//3 74//3
f 72//3 74//3 75//3
f 76//4 77//4 53//4
f 76//4 53//4 78//4
f 79//4 80//4 81//4
f 79//4 81//4 82//4
f 83//4 79//4 82//4
f 83//4 82//4 84//4
f 85//4 76//4 78//4
f 85//4 78//4 86//4
f 87//3 72//3 75//3
f 87//3 75//3 88//3
f 89//3 69//3 71//3
f 89//3 71//3 90//3
f 91//4 92//4 93//4
f 91//4 93//4 94//4
f 95//1 96//1 97//1
f 95//1 97//1 98//1
f 99//7 100//7 101//7
f 99//7 101//7 102//7
f 103//2 104//2 105//2
f 103//2 105//2 106//2
f 107//5 108//5 109//5
f 107//5 109//5 110//5
f 111//3 112//3 113//3
f 111//3 113//3 114//3
f 115//1 116//1 117//1
f 115//1 117//1 118//1
f 119//5 120//5 121//5
f 119//5 121//5 122//5
f 123//2 124//2 125//2
f 123//2 125//2 126//2
f 127//7 128//7 129//7
f 127//7 129//7 130//7
f 131//2 132//2 133//2
f 131//2 133//2 134//2
f 134//2 133//2 124//2
f 134//2 124//2 123//2
f 135//1 136//1 137//1
f 135//1 137//1 138//1
f 138//1 137//1 116//1
f 138//1 116//1 115//1
f 139//3 140//3 141//3
f 139//3 141//3 142//3
f 140//3 111//3 114//3
f 140//3 114//3 141//3
f 143//2 144//2 145//2
f 143//2 145//2 146//2
f 146//2 145//2 104//2
f 146//2 104//2 103//2
f 147//1 148//1 149//1
f 147//1 149//1 150//1
f 150//1 149//1 96//1
f 150//1 96//1 95//1
f 151//4 152//4 153//4
f 151//4 153//4 154//4
f 152//4 91//4 94//4
f 152//4 94//4 153//4
f 73//3 155//3 156//3
f 73//3 156//3 74//3
f 155//3 89//3 90//3
f 155//3 90//3 156//3
f 70//3 157//3 64//3
f 70//3 64//3 63//3
f 157//3 87//3 88//3
f 157//3 88//3 64//3
f 80//4 158//4 159//4
f 80//4 159//4 81//4
f 158//4 85//4 86//4
f 158//4 86//4 159//4
f 77//4 160//4 54//4
f 77//4 54//4 53//4
f 160//4 83//4 84//4
f 160//4 84//4 54//4
f 161//10 162//10 163//10
f 161//10 163//10 164//10
f 162//10 65//10 68//10
f 162//10 68//10 163//10
f 165//3 166//3 88//3
f 165//3 88//3 75//3
f 166//3 62//3 64//3
f 166//3 64//3 88//3
f 167//3 168//3 166//3
f 167//3 166//3 165//3
f 168//3 59//3 62//3
f 168//3 62//3 166//3
f 169//9 170//9 171//9
f 169//9 171//9 172//9
f 170//9 55//9 58//9
f 170//9 58//9 171//9
f 173//4 174//4 84//4
f 173//4 84//4 82//4
f 174//4 52//4 54//4
f 174//4 54//4 84//4
f 175//4 176//4 174//4
f 175//4 174//4 173//4
f 176//4 49//4 52//4
f 176//4 52//4 174//4
f 177//4 178//4 179//4
f 177//4 179//4 180//4
f 178//4 13//4 16//4
f 178//4 16//4 179//4
f 181//3 182//3 183//3
f 181//3 183//3 184//3
f 182//3 9//3 12//3
f 182//3 12//3 183//3
f 185//2 186//2 187//2
f 185//2 187//2 188//2
f 186//2 5//2 8//2
f 186//2 8//2 187//2
f 189//1 190//1 191//1
f 189//1 191//1 192//1
f 193//4 194//4 195//4
f 193//4 195//4 196//4
f 197//5 198//5 199//5
f 197//5 199//5 200//5
f 201//1 189//1 192//1
f 201//1 192//1 202//1
f 203//2 204//2 5//2
f 203//2 5//2 186//2
f 205//2 203//2 186//2
f 205//2 186//2 185//2
f 206//8 45//8 48//8
f 206//8 48//8 207//8
f 208//7 42//7 44//7
f 208//7 44//7 209//7
f 210//7 40//7 42//7
f 210//7 42//7 208//7
f 211//7 37//7 40//7
f 211//7 40//7 210//7
f 212//6 33//6 36//6
f 212//6 36//6 213//6
f 214//5 30//5 32//5
f 214//5 32//5 215//5
f 216//5 28//5 30//5
f 216//5 30//5 214//5
f 217//5 25//5 28//5
f 217//5 28//5 216//5
f 218//5 21//5 24//5
f 218//5 24//5 219//5
f 254//3 255//3 257//3 259//3
f 256//4 253//4 258//4 260//4
f 204//2 222//2 6//2
f 204//2 6//2 5//2
f 223//1 1//1 4//1
f 223//1 4//1 224//1
f 225//1 226//1 223//1
f 225//1 223//1 202//1
f 227//1 228//1 191//1
f 227//1 191//1 2//1
f 229//1 225//1 202//1
f 229//1 202//1 192//1
f 226//1 230//1 1//1
f 226//1 1//1 223//1
f 228//1 229//1 192//1
f 228//1 192//1 191//1
f 230//1 227//1 2//1
f 230//1 2//1 1//1
f 231//1 232//1 233//1
f 231//1 233//1 234//1
f 235//1 231//1 234//1
f 235//1 234//1 236//1
f 237//7 238//7 239//7
f 237//7 239//7 240//7
f 238//7 241//7 242//7
f 238//7 242//7 239//7
f 243//3 244//3 245//3
f 243//3 245//3 246//3
f 198//5 247//5 248//5
f 198//5 248//5 199//5
f 250//7 249//7 17//7 18//7
f 251//7 250//7 18//7 19//7
f 249//7 252//7 20//7 17//7
f 252//7 251//7 19//7 20//7
f 255//7 254//7 17//7 20//7
f 254//7 253//7 220//7 17//7
f 253//7 256//7 221//7 220//7
f 256//7 255//7 20//7 221//7
f 258//7 259//7 257//7
f 258//7 257//7 260//7
f 255//2 256//2 260//2 257//2
f 253//1 254//1 259//1 258//1
f 261//7 263//7 262//7
f 261//7 262//7 264//7
f 252//4 249//4 261//4 264//4
f 249//1 250//1 263//1 261//1
f 265//2 267//2 266//2
f 265//2 268//2 267//2
f 269//1 271//1 270//1
f 269//1 272//1 271//1
f 273//4 275//4 274//4
f 273//4 276//4 275//4
f 277//3 279//3 278//3
f 277//3 280//3 279//3
f 514//11 527//11 526//11 515//11
f 515//12 526//12 528//12 516//12
f 285//7 287//7 286//7
f 285//7 288//7 287//7
f 289//7 291//7 290//7
f 289//7 292//7 291//7
f 292//7 293//7 291//7
f 292//7 294//7 293//7
f 294//7 295//7 293//7
f 294//7 296//7 295//7
f 297//13 299//13 298//13
f 297//13 300//13 299//13
f 301//5 303//5 302//5
f 301//5 304//5 303//5
f 304//5 305//5 303//5
f 304//5 306//5 305//5
f 306//5 307//5 305//5
f 306//5 308//5 307//5
f 309//14 311//14 310//14
f 309//14 312//14 311//14
f 313//3 315//3 314//3
f 313//3 316//3 315//3
f 316//3 317//3 315//3
f 316//3 318//3 317//3
f 319//15 321//15 320//15
f 319//15 322//15 321//15
f 323//4 325//4 324//4
f 323//4 326//4 325//4
f 326//4 327//4 325//4
f 326//4 328//4 327//4
f 329//16 331//16 330//16
f 329//16 332//16 331//16
f 333//4 327//4 334//4
f 333//4 335//4 327//4
f 336//4 338//4 337//4
f 336//4 339//4 338//4
f 340//3 317//3 341//3
f 340//3 342//3 317//3
f 343//3 345//3 344//3
f 343//3 346//3 345//3
f 347//3 346//3 343//3
f 347//3 348//3 346//3
f 349//3 342//3 340//3
f 349//3 350//3 342//3
f 351//4 339//4 336//4
f 351//4 352//4 339//4
f 353//4 335//4 333//4
f 353//4 354//4 335//4
f 355//3 357//3 356//3
f 355//3 358//3 357//3
f 359//2 361//2 360//2
f 359//2 362//2 361//2
f 363//5 365//5 364//5
f 363//5 366//5 365//5
f 367//1 369//1 368//1
f 367//1 370//1 369//1
f 371//7 373//7 372//7
f 371//7 374//7 373//7
f 375//4 377//4 376//4
f 375//4 378//4 377//4
f 379//2 381//2 380//2
f 379//2 382//2 381//2
f 383//7 385//7 384//7
f 383//7 386//7 385//7
f 387//1 389//1 388//1
f 387//1 390//1 389//1
f 391//5 393//5 392//5
f 391//5 394//5 393//5
f 395//1 397//1 396//1
f 395//1 398//1 397//1
f 398//1 388//1 397//1
f 398//1 387//1 388//1
f 399//2 401//2 400//2
f 399//2 402//2 401//2
f 402//2 380//2 401//2
f 402//2 379//2 380//2
f 403//4 405//4 404//4
f 403//4 406//4 405//4
f 404//4 378//4 375//4
f 404//4 405//4 378//4
f 407//1 409//1 408//1
f 407//1 410//1 409//1
f 410//1 368//1 409//1
f 410//1 367//1 368//1
f 411//2 413//2 412//2
f 411//2 414//2 413//2
f 414//2 360//2 413//2
f 414//2 359//2 360//2
f 415//3 417//3 416//3
f 415//3 418//3 417//3
f 416//3 358//3 355//3
f 416//3 417//3 358//3
f 337//4 420//4 419//4
f 337//4 338//4 420//4
f 419//4 354//4 353//4
f 419//4 420//4 354//4
f 334//4 328//4 421//4
f 334//4 327//4 328//4
f 421//4 352//4 351//4
f 421//4 328//4 352//4
f 344//3 423//3 422//3
f 344//3 345//3 423//3
f 422//3 350//3 349//3
f 422//3 423//3 350//3
f 341//3 318//3 424//3
f 341//3 317//3 318//3
f 424//3 348//3 347//3
f 424//3 318//3 348//3
f 425//16 427//16 426//16
f 425//16 428//16 427//16
f 426//16 332//16 329//16
f 426//16 427//16 332//16
f 429//4 352//4 430//4
f 429//4 339//4 352//4
f 430//4 328//4 326//4
f 430//4 352//4 328//4
f 431//4 430//4 432//4
f 431//4 429//4 430//4
f 432//4 326//4 323//4
f 432//4 430//4 326//4
f 433//15 435//15 434//15
f 433//15 436//15 435//15
f 434//15 322//15 319//15
f 434//15 435//15 322//15
f 437//3 348//3 438//3
f 437//3 346//3 348//3
f 438//3 318//3 316//3
f 438//3 348//3 318//3
f 439//3 438//3 440//3
f 439//3 437//3 438//3
f 440//3 316//3 313//3
f 440//3 438//3 316//3
f 441//3 443//3 442//3
f 441//3 444//3 443//3
f 442//3 280//3 277//3
f 442//3 443//3 280//3
f 445//4 447//4 446//4
f 445//4 448//4 447//4
f 446//4 276//4 273//4
f 446//4 447//4 276//4
f 449//1 451//1 450//1
f 449//1 452//1 451//1
f 450//1 272//1 269//1
f 450//1 451//1 272//1
f 453//2 455//2 454//2
f 453//2 456//2 455//2
f 457//3 459//3 458//3
f 457//3 460//3 459//3
f 461//7 463//7 462//7
f 461//7 464//7 463//7
f 465//2 456//2 453//2
f 465//2 466//2 456//2
f 467//1 269//1 468//1
f 467//1 450//1 269//1
f 469//1 450//1 467//1
f 469//1 449//1 450//1
f 470//14 312//14 309//14
f 470//14 471//14 312//14
f 472//5 308//5 306//5
f 472//5 473//5 308//5
f 474//5 306//5 304//5
f 474//5 472//5 306//5
f 475//5 304//5 301//5
f 475//5 474//5 304//5
f 476//13 300//13 297//13
f 476//13 477//13 300//13
f 478//7 296//7 294//7
f 478//7 479//7 296//7
f 480//7 294//7 292//7
f 480//7 478//7 294//7
f 481//7 292//7 289//7
f 481//7 480//7 292//7
f 482//7 288//7 285//7
f 482//7 483//7 288//7
f 518//17 523//17 521//17 519//17
f 520//18 524//18 522//18 517//18
f 468//1 270//1 486//1
f 468//1 269//1 270//1
f 487//2 268//2 265//2
f 487//2 488//2 268//2
f 489//2 487//2 490//2
f 489//2 466//2 487//2
f 491//2 455//2 492//2
f 491//2 266//2 455//2
f 493//2 466//2 489//2
f 493//2 456//2 466//2
f 490//2 265//2 494//2
f 490//2 487//2 265//2
f 492//2 456//2 493//2
f 492//2 455//2 456//2
f 494//2 266//2 491//2
f 494//2 265//2 266//2
f 495//2 497//2 496//2
f 495//2 498//2 497//2
f 499//2 498//2 495//2
f 499//2 500//2 498//2
f 501//5 503//5 502//5
f 501//5 504//5 503//5
f 502//5 506//5 505//5
f 502//5 503//5 506//5
f 507//4 509//4 508//4
f 507//4 510//4 509//4
f 462//7 512//7 511//7
f 462//7 463//7 512//7
f 514//19 282//19 281//19 513//19
f 515//20 283//20 282//20 514//20
f 513//21 281//21 284//21 516//21
f 516//22 284//22 283//22 515//22
f 519//23 284//23 281//23 518//23
f 518//24 281//24 484//24 517//24
f 517//25 484//25 485//25 520//25
f 520//26 485//26 284//26 519//26
f 522//5 521//5 523//5
f 522//5 524//5 521//5
f 519//27 521//27 524//27 520//27
f 517//28 522//28 523//28 518//28
f 525//5 526//5 527//5
f 525//5 528//5 526//5
f 516//29 528//29 525//29 513//29
f 513//30 525//30 527//30 514//30
f 3//3 2//3 266//3 267//3
f 4//7 3//7 267//7 268//7
f 7//7 6//7 270//7 271//7
f 8//3 7//3 271//3 272//3
f 10//1 9//1 273//1 274//1
f 11//5 10//5 274//5 275//5
f 12//2 11//2 275//2 276//2
f 14//1 13//1 277//1 278//1
f 15//7 14//7 278//7 279//7
f 16//2 15//2 279//2 280//2
f 22//1 21//1 285//1 286//1
f 23//4 22//4 286//4 287//4
f 24//2 23//2 287//2 288//2
f 26//1 25//1 289//1 290//1
f 27//4 26//4 290//4 291//4
f 29//4 27//4 291//4 293//4
f 31//4 29//4 293//4 295//4
f 32//2 31//2 295//2 296//2
f 34//31 33//31 297//31 298//31
f 35//32 34//32 298//32 299//32
f 36//33 35//33 299//33 300//33
f 38//1 37//1 301//1 302//1
f 39//3 38//3 302//3 303//3
f 41//3 39//3 303//3 305//3
f 43//3 41//3 305//3 307//3
f 44//2 43//2 307//2 308//2
f 46//34 45//34 309//34 310//34
f 47//35 46//35 310//35 311//35
f 48//36 47//36 311//36 312//36
f 50//1 49//1 313//1 314//1
f 51//7 50//7 314//7 315//7
f 53//7 51//7 315//7 317//7
f 56//37 55//37 319//37 320//37
f 57//38 56//38 320//38 321//38
f 58//39 57//39 321//39 322//39
f 60//1 59//1 323//1 324//1
f 61//5 60//5 324//5 325//5
f 63//5 61//5 325//5 327//5
f 66//40 65//40 329//40 330//40
f 67//41 66//41 330//41 331//41
f 68//42 67//42 331//42 332//42
f 70//7 69//7 333//7 334//7
f 71//5 63//5 327//5 335//5
f 73//5 72//5 336//5 337//5
f 75//7 74//7 338//7 339//7
f 77//5 76//5 340//5 341//5
f 78//7 53//7 317//7 342//7
f 80//7 79//7 343//7 344//7
f 82//5 81//5 345//5 346//5
f 79//2 83//2 347//2 343//2
f 76//1 85//1 349//1 340//1
f 86//2 78//2 342//2 350//2
f 72//2 87//2 351//2 336//2
f 69//1 89//1 353//1 333//1
f 90//2 71//2 335//2 354//2
f 92//1 91//1 355//1 356//1
f 93//7 92//7 356//7 357//7
f 94//2 93//2 357//2 358//2
f 97//4 96//4 360//4 361//4
f 95//3 98//3 362//3 359//3
f 98//5 97//5 361//5 362//5
f 100//2 99//2 363//2 364//2
f 101//4 100//4 364//4 365//4
f 99//3 102//3 366//3 363//3
f 102//1 101//1 365//1 366//1
f 105//4 104//4 368//4 369//4
f 103//3 106//3 370//3 367//3
f 106//7 105//7 369//7 370//7
f 108//1 107//1 371//1 372//1
f 109//4 108//4 372//4 373//4
f 107//3 110//3 374//3 371//3
f 110//2 109//2 373//2 374//2
f 112//1 111//1 375//1 376//1
f 113//5 112//5 376//5 377//5
f 114//2 113//2 377//2 378//2
f 117//3 116//3 380//3 381//3
f 115//4 118//4 382//4 379//4
f 118//7 117//7 381//7 382//7
f 120//2 119//2 383//2 384//2
f 121//3 120//3 384//3 385//3
f 119//4 122//4 386//4 383//4
f 122//1 121//1 385//1 386//1
f 125//3 124//3 388//3 389//3
f 123//4 126//4 390//4 387//4
f 126//5 125//5 389//5 390//5
f 128//1 127//1 391//1 392//1
f 129//3 128//3 392//3 393//3
f 127//4 130//4 394//4 391//4
f 130//2 129//2 393//2 394//2
f 132//7 131//7 395//7 396//7
f 133//3 132//3 396//3 397//3
f 131//4 134//4 398//4 395//4
f 124//3 133//3 397//3 388//3
f 134//4 123//4 387//4 398//4
f 136//5 135//5 399//5 400//5
f 137//3 136//3 400//3 401//3
f 135//4 138//4 402//4 399//4
f 116//3 137//3 401//3 380//3
f 138//4 115//4 379//4 402//4
f 140//1 139//1 403//1 404//1
f 139//7 142//7 406//7 403//7
f 142//2 141//2 405//2 406//2
f 111//1 140//1 404//1 375//1
f 141//2 114//2 378//2 405//2
f 144//5 143//5 407//5 408//5
f 145//4 144//4 408//4 409//4
f 143//3 146//3 410//3 407//3
f 104//4 145//4 409//4 368//4
f 146//3 103//3 367//3 410//3
f 148//7 147//7 411//7 412//7
f 149//4 148//4 412//4 413//4
f 147//3 150//3 414//3 411//3
f 96//4 149//4 413//4 360//4
f 150//3 95//3 359//3 414//3
f 152//1 151//1 415//1 416//1
f 151//5 154//5 418//5 415//5
f 154//2 153//2 417//2 418//2
f 91//1 152//1 416//1 355//1
f 153//2 94//2 358//2 417//2
f 155//1 73//1 337//1 419//1
f 74//2 156//2 420//2 338//2
f 89//1 155//1 419//1 353//1
f 156//2 90//2 354//2 420//2
f 157//2 70//2 334//2 421//2
f 87//2 157//2 421//2 351//2
f 158//1 80//1 344//1 422//1
f 81//2 159//2 423//2 345//2
f 85//1 158//1 422//1 349//1
f 159//2 86//2 350//2 423//2
f 160//2 77//2 341//2 424//2
f 83//2 160//2 424//2 347//2
f 162//40 161//40 425//40 426//40
f 161//43 164//43 428//43 425//43
f 164//42 163//42 427//42 428//42
f 65//40 162//40 426//40 329//40
f 163//42 68//42 332//42 427//42
f 165//7 75//7 339//7 429//7
f 168//1 167//1 431//1 432//1
f 167//7 165//7 429//7 431//7
f 59//1 168//1 432//1 323//1
f 170//37 169//37 433//37 434//37
f 169//44 172//44 436//44 433//44
f 172//39 171//39 435//39 436//39
f 55//37 170//37 434//37 319//37
f 171//39 58//39 322//39 435//39
f 173//5 82//5 346//5 437//5
f 176//1 175//1 439//1 440//1
f 175//5 173//5 437//5 439//5
f 49//1 176//1 440//1 313//1
f 178//1 177//1 441//1 442//1
f 177//5 180//5 444//5 441//5
f 180//2 179//2 443//2 444//2
f 13//1 178//1 442//1 277//1
f 179//2 16//2 280//2 443//2
f 182//1 181//1 445//1 446//1
f 181//7 184//7 448//7 445//7
f 184//2 183//2 447//2 448//2
f 9//1 182//1 446//1 273//1
f 183//2 12//2 276//2 447//2
f 185//5 188//5 452//5 449//5
f 188//3 187//3 451//3 452//3
f 187//3 8//3 272//3 451//3
f 190//5 189//5 453//5 454//5
f 191//3 190//3 454//3 455//3
f 194//2 193//2 457//2 458//2
f 195//5 194//5 458//5 459//5
f 193//7 196//7 460//7 457//7
f 196//1 195//1 459//1 460//1
f 198//2 197//2 461//2 462//2
f 197//4 200//4 464//4 461//4
f 200//1 199//1 463//1 464//1
f 189//5 201//5 465//5 453//5
f 201//4 202//4 466//4 465//4
f 204//4 203//4 467//4 468//4
f 203//4 205//4 469//4 467//4
f 205//5 185//5 449//5 469//5
f 45//34 206//34 470//34 309//34
f 206//45 207//45 471//45 470//45
f 207//36 48//36 312//36 471//36
f 208//4 209//4 473//4 472//4
f 209//2 44//2 308//2 473//2
f 210//4 208//4 472//4 474//4
f 37//1 211//1 475//1 301//1
f 211//4 210//4 474//4 475//4
f 33//31 212//31 476//31 297//31
f 212//46 213//46 477//46 476//46
f 213//33 36//33 300//33 477//33
f 214//3 215//3 479//3 478//3
f 215//2 32//2 296//2 479//2
f 216//3 214//3 478//3 480//3
f 25//1 217//1 481//1 289//1
f 217//3 216//3 480//3 481//3
f 21//1 218//1 482//1 285//1
f 218//3 219//3 483//3 482//3
f 219//2 24//2 288//2 483//2
f 222//4 204//4 468//4 486//4
f 6//7 222//7 486//7 270//7
f 223//4 224//4 488//4 487//4
f 224//7 4//7 268//7 488//7
f 226//3 225//3 489//3 490//3
f 202//4 223//4 487//4 466//4
f 228//4 227//4 491//4 492//4
f 2//3 191//3 455//3 266//3
f 225//7 229//7 493//7 489//7
f 230//5 226//5 490//5 494//5
f 229//7 228//7 492//7 493//7
f 227//5 230//5 494//5 491//5
f 232//5 231//5 495//5 496//5
f 233//3 232//3 496//3 497//3
f 234//7 233//7 497//7 498//7
f 231//5 235//5 499//5 495//5
f 235//4 236//4 500//4 499//4
f 236//7 234//7 498//7 500//7
f 238//2 237//2 501//2 502//2
f 237//3 240//3 504//3 501//3
f 240//1 239//1 503//1 504//1
f 241//2 238//2 502//2 505//2
f 242//4 241//4 505//4 506//4
f 239//1 242//1 506//1 503//1
f 244//2 243//2 507//2 508//2
f 245//7 244//7 508//7 509//7
f 243//5 246//5 510//5 507//5
f 246//1 245//1 509//1 510//1
f 247//2 198//2 462//2 511//2
f 248//3 247//3 511//3 512//3
f 199//1 248//1 512//1 463//1
f 18//1 17//1 281//1 282//1
f 19//3 18//3 282//3 283//3
f 20//2 19//2 283//2 284//2
f 17//1 220//1 484//1 281//1
f 220//4 221//4 485//4 484//4
f 221//2 20//2 284//2 485//2
